{
	"asset":{
		"generator":"Khronos glTF Blender I/O v4.5.47",
		"version":"2.0"
	},
	"scene":0,
	"scenes":[
		{
			"name":"Scene",
			"nodes":[
				0
			]
		}
	],
	"nodes":[
		{
			"mesh":0,
			"name":"Cone",
			"translation":[
				0,
				1.0209969282150269,
				0
			]
		}
	],
	"materials":[
		{
			"doubleSided":true,
			"name":"ConeMat",
			"pbrMetallicRoughness":{
				"baseColorTexture":{
					"index":0
				},
				"metallicFactor":0,
				"roughnessFactor":0.7253885865211487
			}
		}
	],
	"meshes":[
		{
			"name":"Cone",
			"primitives":[
				{
					"attributes":{
						"POSITION":0,
						"NORMAL":1,
						"TEXCOORD_0":2
					},
					"indices":3,
					"material":0
				}
			]
		}
	],
	"textures":[
		{
			"sampler":0,
			"source":0
		}
	],
	"images":[
		{
			"mimeType":"image/png",
			"name":"ConeBaseColor",
			"uri":"ConeBaseColor.png"
		}
	],
	"accessors":[
		{
			"bufferView":0,
			"componentType":5126,
			"count":458,
			"max":[
				1.066935658454895,
				0.9999997019767761,
				1.066935658454895
			],
			"min":[
				-1.066935658454895,
				-1,
				-1.066935658454895
			],
			"type":"VEC3"
		},
		{
			"bufferView":1,
			"componentType":5126,
			"count":458,
			"type":"VEC3"
		},
		{
			"bufferView":2,
			"componentType":5126,
			"count":458,
			"type":"VEC2"
		},
		{
			"bufferView":3,
			"componentType":5123,
			"count":1530,
			"type":"SCALAR"
		}
	],
	"bufferViews":[
		{
			"buffer":0,
			"byteLength":5496,
			"byteOffset":0,
			"target":34962
		},
		{
			"buffer":0,
			"byteLength":5496,
			"byteOffset":5496,
			"target":34962
		},
		{
			"buffer":0,
			"byteLength":3664,
			"byteOffset":10992,
			"target":34962
		},
		{
			"buffer":0,
			"byteLength":3060,
			"byteOffset":14656,
			"target":34963
		}
	],
	"samplers":[
		{
			"magFilter":9729,
			"minFilter":9987
		}
	],
	"buffers":[
		{
			"byteLength":17716,
			"uri":"ConeTransito.bin"
		}
	]
}
